<svg xmlns="http://www.w3.org/2000/svg" width="24" height="24" viewBox="0 0 24 24">
  <g id="ic_cart" transform="translate(-33.524 -10.172)">
    <g id="Group_606" data-name="Group 606">
      <path id="Path_470" data-name="Path 470" d="M52.815,28.172H41.724a2.963,2.963,0,0,1-2.9-2.6L37.183,13.032a.959.959,0,0,0-.92-.86H34.524a1,1,0,0,1,0-2h1.739a2.962,2.962,0,0,1,2.9,2.6l.355,2.717h17a1,1,0,0,1,.981,1.2l-1.821,9.09A2.957,2.957,0,0,1,52.815,28.172ZM39.782,17.489l1.023,7.822a.958.958,0,0,0,.919.861H52.815a.952.952,0,0,0,.908-.789L55.3,17.489Z" fill="#8d9296"/>
    </g>
    <g id="Group_607" data-name="Group 607">
      <path id="Path_471" data-name="Path 471" d="M43.452,31.095a.539.539,0,1,1-.538.539.54.54,0,0,1,.538-.539m0-2a2.539,2.539,0,1,0,2.539,2.539,2.538,2.538,0,0,0-2.539-2.539Z" fill="#8d9296"/>
    </g>
    <g id="Group_608" data-name="Group 608">
      <path id="Path_472" data-name="Path 472" d="M51.569,31.095a.539.539,0,1,1-.539.539.539.539,0,0,1,.539-.539m0-2a2.539,2.539,0,1,0,2.538,2.539,2.539,2.539,0,0,0-2.538-2.539Z" fill="#8d9296"/>
    </g>
  </g>
</svg>
