<svg xmlns="http://www.w3.org/2000/svg" width="100" height="38" viewBox="0 0 100 38">
  <g id="Logo_Original" data-name="Logo Original" opacity="0.8">
    <g id="Group_1" data-name="Group 1" transform="translate(17.43)">
      <path id="Path_1" data-name="Path 1" d="M122.116,399.49a.805.805,0,0,1-.586-.256l-13.873-14.612L93.784,399.234a.8.8,0,0,1-1.177-.005.923.923,0,0,1,0-1.25l14.459-15.229a.8.8,0,0,1,1.172,0L122.7,397.978a.923.923,0,0,1,0,1.25A.8.8,0,0,1,122.116,399.49Z" transform="translate(-92.366 -382.493)" fill="#f68e2f"/>
    </g>
    <g id="Group_2" data-name="Group 2" transform="translate(59.416 9.62)">
      <path id="Path_2" data-name="Path 2" d="M329.834,437.573a39.641,39.641,0,0,1-7.332-.25c1.612,2.541-.312,4.669-2.236,6.242A30.286,30.286,0,0,1,315,446.9c-.426.223-.859.44-1.29.65a80.725,80.725,0,0,1-8.5,3.5,33.739,33.739,0,0,1-4.039.9c-.362.064-.73.128-1.1.19-2.577.433-5.2.791-5.853.826,1.816-.6,3.8-1.321,5.853-2.115.364-.141.73-.283,1.1-.429a131.876,131.876,0,0,0,12.235-5.533q.59-.308,1.154-.616c3.074-1.682,5.489-3.3,6.612-4.634,0,0-1.955-3.964-2.382-4.726.067-.168,1.258-3.3,1.662-4.466.832,2,1.373,2.6,2.2,3.151,1.753,1.122,4.88.884,6.97.765a7.059,7.059,0,0,0,3.191-.645l-1.909-4.01,1.731-3.679a10.5,10.5,0,0,1,1.8,4.075C335.165,435.673,331.057,437.518,329.834,437.573Z" transform="translate(-294.22 -426.03)" fill="#f68e2f"/>
      <path id="Path_3" data-name="Path 3" d="M457.216,492.153l-3.124-2.616-1.151,2.15-2.717-2.271-1.443,2.562,3.127,2.562,1.164-1.975,2.652,2.141Z" transform="translate(-416.632 -475.41)" fill="#f68e2f"/>
      <path id="Path_4" data-name="Path 4" d="M465.443,513.165l2.919,2.368-1.3,2.375-2.906-2.372Z" transform="translate(-428.809 -493.912)" fill="#f68e2f"/>
    </g>
    <g id="Group_3" data-name="Group 3" transform="translate(0 11.966)">
      <path id="Path_5" data-name="Path 5" d="M19.438,450.029v1.262h7.719v2.3A8.092,8.092,0,0,1,22.6,460.98l-.206.093a8.224,8.224,0,0,1-3.239.645c-3.105,0-4.491-.588-6.978-3.33-1.772-1.953-2.392-5.254-2.392-8.615,0-3.394.653-6.253,2.207-8.423a8.117,8.117,0,0,1,6.847-3.582,8.062,8.062,0,0,1,5.795,1.973,8.431,8.431,0,0,1,2.011,3.542l1.044-.537a8.674,8.674,0,0,0-2.332-3.761,9.245,9.245,0,0,0-6.567-2.338,8.825,8.825,0,0,0-7.609,3.991,15.225,15.225,0,0,0-2.61,9.135c0,3.677.795,6.843,2.6,9.19a8.822,8.822,0,0,0,7.7,3.719,11.833,11.833,0,0,0,2.417-.256,11.038,11.038,0,0,0,2.02-.623,8.761,8.761,0,0,0,5.069-8.07v-3.7Z" transform="translate(-8.57 -436.648)" fill="#464746"/>
      <path id="Path_6" data-name="Path 6" d="M126.089,453.189v9.873h14.864v-9.873h1.066v21.828h-1.066V464.1H126.089v10.914h-1.066V453.189Z" transform="translate(-100.8 -449.534)" fill="#464746"/>
      <path id="Path_7" data-name="Path 7" d="M229.209,439.556h-1.227L219,464.4h1.034l8.53-23.455h.071l8.36,23.455h1.094Z" transform="translate(-175.23 -438.913)" fill="#464746"/>
      <path id="Path_8" data-name="Path 8" d="M336.847,454.815A3.54,3.54,0,0,0,334,452.23v-.071a5.362,5.362,0,0,0,3.139-2.289,6.053,6.053,0,0,0,1.028-3.7c0-2.17-.279-3.577-1.545-4.861a6.774,6.774,0,0,0-5.063-1.75h-9.2V464.4h1.1V452.718h8.066a5,5,0,0,1,3.27.988,2.792,2.792,0,0,1,.9,1.726,20.268,20.268,0,0,1,.306,2.663c0,.018,0,.035,0,.053,0,0,.116,1.458.116,6.406h1.167c0-2.738.127-5.151,0-7.108A10.6,10.6,0,0,0,336.847,454.815Zm-5.354-3.118h-8.035V440.645h8a6.1,6.1,0,0,1,4.443,1.609,6.694,6.694,0,0,1-.094,7.868A6.089,6.089,0,0,1,331.493,451.7Z" transform="translate(-257.091 -438.917)" fill="#464746"/>
      <path id="Path_9" data-name="Path 9" d="M388.055,511.229c-.426.223-.859.44-1.29.65a20.259,20.259,0,0,0-.306-2.663q.59-.308,1.154-.616A10.6,10.6,0,0,1,388.055,511.229Z" transform="translate(-307.858 -492.701)" fill="#f68e2f"/>
    </g>
  </g>
</svg>
