<svg xmlns="http://www.w3.org/2000/svg" width="40" height="40" viewBox="0 0 40 40">
  <g id="Group_1189" data-name="Group 1189" transform="translate(-1017 -47)">
    <circle id="Ellipse_117" data-name="Ellipse 117" cx="20" cy="20" r="20" transform="translate(1017 47)" fill="#ebebeb"/>
    <g id="iconfinder_alert-80px_510913" transform="translate(1010.883 41.957)">
      <rect id="Rectangle_600" data-name="Rectangle 600" width="6" height="2" rx="1" transform="translate(23.117 33.043)" fill="#17222d"/>
      <path id="Path_1072" data-name="Path 1072" d="M32.831,29.214V23.364a6.619,6.619,0,0,0-5.773-6.511v-.9a.931.931,0,0,0-1.862,0v.9a6.619,6.619,0,0,0-5.773,6.511v5.851H16.968a.917.917,0,0,0,0,1.828c1.119,0,17.142,0,18.317,0s1.039-1.828,0-1.828Zm-1.862,0H21.285V23.364a4.843,4.843,0,0,1,9.684,0Z" transform="translate(0 0)" fill="#17222d"/>
    </g>
  </g>
</svg>
