<svg xmlns="http://www.w3.org/2000/svg" width="24" height="24" viewBox="0 0 24 24">
  <g id="twitter" transform="translate(-0.294 -0.196)">
    <circle id="Ellipse_83" data-name="Ellipse 83" cx="12" cy="12" r="12" transform="translate(0.294 0.196)" fill="#1cb7eb"/>
    <g id="Group_902" data-name="Group 902" transform="translate(6.373 7.113)">
      <g id="Group_901" data-name="Group 901" transform="translate(0 0)">
        <path id="Path_627" data-name="Path 627" d="M22.188,13.936a3.487,3.487,0,0,1-1.307.393,2.435,2.435,0,0,0,1-1.355,5.034,5.034,0,0,1-1.482.612,2.222,2.222,0,0,0-1.656-.787,2.4,2.4,0,0,0-2.31,2.491,2.5,2.5,0,0,0,.044.568,6.374,6.374,0,0,1-4.75-2.578,2.376,2.376,0,0,0-.305,1.267,2.488,2.488,0,0,0,1,2.054,2.094,2.094,0,0,1-1.046-.306v.044a2.5,2.5,0,0,0,1.83,2.447,2.565,2.565,0,0,1-.61.087,1.479,1.479,0,0,1-.436-.044,2.267,2.267,0,0,0,2.135,1.7,4.443,4.443,0,0,1-2.833,1.049,2.673,2.673,0,0,1-.567-.044,6.18,6.18,0,0,0,3.53,1.136c4.227,0,6.537-3.758,6.537-7.036v-.306A5.217,5.217,0,0,0,22.188,13.936Z" transform="translate(-10.9 -12.8)" fill="#fff"/>
      </g>
    </g>
  </g>
</svg>
